<svg viewBox="0 0 100 100" xmlns="http://www.w3.org/2000/svg" shape-rendering="crispEdges">
<rect x="18.7500" y="9.3750" width="3.1450" height="3.1450" fill="#FB2C36"/>
<rect x="21.8750" y="9.3750" width="3.1450" height="3.1450" fill="#FB2C36"/>
<rect x="25.0000" y="9.3750" width="3.1450" height="3.1450" fill="#FB2C36"/>
<rect x="28.1250" y="9.3750" width="3.1450" height="3.1450" fill="#FB2C36"/>
<rect x="31.2500" y="9.3750" width="3.1450" height="3.1450" fill="#FB2C36"/>
<rect x="34.3750" y="9.3750" width="3.1450" height="3.1450" fill="#FB2C36"/>
<rect x="37.5000" y="9.3750" width="3.1450" height="3.1450" fill="#FB2C36"/>
<rect x="40.6250" y="9.3750" width="3.1450" height="3.1450" fill="#FB2C36"/>
<rect x="43.7500" y="9.3750" width="3.1450" height="3.1450" fill="#FB2C36"/>
<rect x="46.8750" y="9.3750" width="3.1450" height="3.1450" fill="#FB2C36"/>
<rect x="50.0000" y="9.3750" width="3.1450" height="3.1450" fill="#FB2C36"/>
<rect x="53.1250" y="9.3750" width="3.1450" height="3.1450" fill="#FB2C36"/>
<rect x="56.2500" y="9.3750" width="3.1450" height="3.1450" fill="#FB2C36"/>
<rect x="59.3750" y="9.3750" width="3.1450" height="3.1450" fill="#FB2C36"/>
<rect x="62.5000" y="9.3750" width="3.1450" height="3.1450" fill="#FB2C36"/>
<rect x="65.6250" y="9.3750" width="3.1450" height="3.1450" fill="#FB2C36"/>
<rect x="68.7500" y="9.3750" width="3.1450" height="3.1450" fill="#FB2C36"/>
<rect x="71.8750" y="9.3750" width="3.1450" height="3.1450" fill="#FB2C36"/>
<rect x="75.0000" y="9.3750" width="3.1450" height="3.1450" fill="#FB2C36"/>
<rect x="78.1250" y="9.3750" width="3.1450" height="3.1450" fill="#FB2C36"/>
<rect x="12.5000" y="12.5000" width="3.1450" height="3.1450" fill="#FB2C36"/>
<rect x="15.6250" y="12.5000" width="3.1450" height="3.1450" fill="#FB2C36"/>
<rect x="18.7500" y="12.5000" width="3.1450" height="3.1450" fill="#FB2C36"/>
<rect x="21.8750" y="12.5000" width="3.1450" height="3.1450" fill="#FB2C36"/>
<rect x="25.0000" y="12.5000" width="3.1450" height="3.1450" fill="#FB2C36"/>
<rect x="28.1250" y="12.5000" width="3.1450" height="3.1450" fill="#FB2C36"/>
<rect x="31.2500" y="12.5000" width="3.1450" height="3.1450" fill="#FB2C36"/>
<rect x="34.3750" y="12.5000" width="3.1450" height="3.1450" fill="#FB2C36"/>
<rect x="37.5000" y="12.5000" width="3.1450" height="3.1450" fill="#FB2C36"/>
<rect x="40.6250" y="12.5000" width="3.1450" height="3.1450" fill="#FB2C36"/>
<rect x="43.7500" y="12.5000" width="3.1450" height="3.1450" fill="#FB2C36"/>
<rect x="46.8750" y="12.5000" width="3.1450" height="3.1450" fill="#FB2C36"/>
<rect x="50.0000" y="12.5000" width="3.1450" height="3.1450" fill="#FB2C36"/>
<rect x="53.1250" y="12.5000" width="3.1450" height="3.1450" fill="#FB2C36"/>
<rect x="56.2500" y="12.5000" width="3.1450" height="3.1450" fill="#FB2C36"/>
<rect x="59.3750" y="12.5000" width="3.1450" height="3.1450" fill="#FB2C36"/>
<rect x="62.5000" y="12.5000" width="3.1450" height="3.1450" fill="#FB2C36"/>
<rect x="65.6250" y="12.5000" width="3.1450" height="3.1450" fill="#FB2C36"/>
<rect x="68.7500" y="12.5000" width="3.1450" height="3.1450" fill="#FB2C36"/>
<rect x="71.8750" y="12.5000" width="3.1450" height="3.1450" fill="#FB2C36"/>
<rect x="75.0000" y="12.5000" width="3.1450" height="3.1450" fill="#FB2C36"/>
<rect x="78.1250" y="12.5000" width="3.1450" height="3.1450" fill="#FB2C36"/>
<rect x="81.2500" y="12.5000" width="3.1450" height="3.1450" fill="#FB2C36"/>
<rect x="84.3750" y="12.5000" width="3.1450" height="3.1450" fill="#FB2C36"/>
<rect x="9.3750" y="15.6250" width="3.1450" height="3.1450" fill="#FB2C36"/>
<rect x="12.5000" y="15.6250" width="3.1450" height="3.1450" fill="#FB2C36"/>
<rect x="15.6250" y="15.6250" width="3.1450" height="3.1450" fill="#FB2C36"/>
<rect x="18.7500" y="15.6250" width="3.1450" height="3.1450" fill="#FB2C36"/>
<rect x="21.8750" y="15.6250" width="3.1450" height="3.1450" fill="#FB2C36"/>
<rect x="25.0000" y="15.6250" width="3.1450" height="3.1450" fill="#FB2C36"/>
<rect x="28.1250" y="15.6250" width="3.1450" height="3.1450" fill="#FB2C36"/>
<rect x="31.2500" y="15.6250" width="3.1450" height="3.1450" fill="#FB2C36"/>
<rect x="34.3750" y="15.6250" width="3.1450" height="3.1450" fill="#FB2C36"/>
<rect x="37.5000" y="15.6250" width="3.1450" height="3.1450" fill="#FB2C36"/>
<rect x="40.6250" y="15.6250" width="3.1450" height="3.1450" fill="#FB2C36"/>
<rect x="43.7500" y="15.6250" width="3.1450" height="3.1450" fill="#FB2C36"/>
<rect x="46.8750" y="15.6250" width="3.1450" height="3.1450" fill="#FB2C36"/>
<rect x="50.0000" y="15.6250" width="3.1450" height="3.1450" fill="#FB2C36"/>
<rect x="53.1250" y="15.6250" width="3.1450" height="3.1450" fill="#FB2C36"/>
<rect x="56.2500" y="15.6250" width="3.1450" height="3.1450" fill="#FB2C36"/>
<rect x="59.3750" y="15.6250" width="3.1450" height="3.1450" fill="#FB2C36"/>
<rect x="62.5000" y="15.6250" width="3.1450" height="3.1450" fill="#FB2C36"/>
<rect x="65.6250" y="15.6250" width="3.1450" height="3.1450" fill="#FB2C36"/>
<rect x="68.7500" y="15.6250" width="3.1450" height="3.1450" fill="#FB2C36"/>
<rect x="71.8750" y="15.6250" width="3.1450" height="3.1450" fill="#FB2C36"/>
<rect x="75.0000" y="15.6250" width="3.1450" height="3.1450" fill="#FB2C36"/>
<rect x="78.1250" y="15.6250" width="3.1450" height="3.1450" fill="#FB2C36"/>
<rect x="81.2500" y="15.6250" width="3.1450" height="3.1450" fill="#FB2C36"/>
<rect x="84.3750" y="15.6250" width="3.1450" height="3.1450" fill="#FB2C36"/>
<rect x="87.5000" y="15.6250" width="3.1450" height="3.1450" fill="#FB2C36"/>
<rect x="9.3750" y="18.7500" width="3.1450" height="3.1450" fill="#FB2C36"/>
<rect x="12.5000" y="18.7500" width="3.1450" height="3.1450" fill="#FB2C36"/>
<rect x="15.6250" y="18.7500" width="3.1450" height="3.1450" fill="#FB2C36"/>
<rect x="18.7500" y="18.7500" width="3.1450" height="3.1450" fill="#FB2C36"/>
<rect x="21.8750" y="18.7500" width="3.1450" height="3.1450" fill="#FB2C36"/>
<rect x="25.0000" y="18.7500" width="3.1450" height="3.1450" fill="#FB2C36"/>
<rect x="28.1250" y="18.7500" width="3.1450" height="3.1450" fill="#FB2C36"/>
<rect x="31.2500" y="18.7500" width="3.1450" height="3.1450" fill="#FB2C36"/>
<rect x="34.3750" y="18.7500" width="3.1450" height="3.1450" fill="#FB2C36"/>
<rect x="37.5000" y="18.7500" width="3.1450" height="3.1450" fill="#FB2C36"/>
<rect x="40.6250" y="18.7500" width="3.1450" height="3.1450" fill="#FB2C36"/>
<rect x="43.7500" y="18.7500" width="3.1450" height="3.1450" fill="#FB2C36"/>
<rect x="46.8750" y="18.7500" width="3.1450" height="3.1450" fill="#FB2C36"/>
<rect x="50.0000" y="18.7500" width="3.1450" height="3.1450" fill="#FB2C36"/>
<rect x="53.1250" y="18.7500" width="3.1450" height="3.1450" fill="#FB2C36"/>
<rect x="56.2500" y="18.7500" width="3.1450" height="3.1450" fill="#FB2C36"/>
<rect x="59.3750" y="18.7500" width="3.1450" height="3.1450" fill="#FB2C36"/>
<rect x="62.5000" y="18.7500" width="3.1450" height="3.1450" fill="#FB2C36"/>
<rect x="65.6250" y="18.7500" width="3.1450" height="3.1450" fill="#FB2C36"/>
<rect x="68.7500" y="18.7500" width="3.1450" height="3.1450" fill="#FB2C36"/>
<rect x="71.8750" y="18.7500" width="3.1450" height="3.1450" fill="#FB2C36"/>
<rect x="75.0000" y="18.7500" width="3.1450" height="3.1450" fill="#FB2C36"/>
<rect x="78.1250" y="18.7500" width="3.1450" height="3.1450" fill="#FB2C36"/>
<rect x="81.2500" y="18.7500" width="3.1450" height="3.1450" fill="#FB2C36"/>
<rect x="84.3750" y="18.7500" width="3.1450" height="3.1450" fill="#FB2C36"/>
<rect x="87.5000" y="18.7500" width="3.1450" height="3.1450" fill="#FB2C36"/>
<rect x="9.3750" y="21.8750" width="3.1450" height="3.1450" fill="#FB2C36"/>
<rect x="12.5000" y="21.8750" width="3.1450" height="3.1450" fill="#FB2C36"/>
<rect x="15.6250" y="21.8750" width="3.1450" height="3.1450" fill="#FB2C36"/>
<rect x="18.7500" y="21.8750" width="3.1450" height="3.1450" fill="#FB2C36"/>
<rect x="21.8750" y="21.8750" width="3.1450" height="3.1450" fill="#FB2C36"/>
<rect x="25.0000" y="21.8750" width="3.1450" height="3.1450" fill="#FB2C36"/>
<rect x="28.1250" y="21.8750" width="3.1450" height="3.1450" fill="#FB2C36"/>
<rect x="31.2500" y="21.8750" width="3.1450" height="3.1450" fill="#FB2C36"/>
<rect x="34.3750" y="21.8750" width="3.1450" height="3.1450" fill="#FFFFFF"/>
<rect x="37.5000" y="21.8750" width="3.1450" height="3.1450" fill="#FFFFFF"/>
<rect x="40.6250" y="21.8750" width="3.1450" height="3.1450" fill="#FFFFFF"/>
<rect x="43.7500" y="21.8750" width="3.1450" height="3.1450" fill="#FFFFFF"/>
<rect x="46.8750" y="21.8750" width="3.1450" height="3.1450" fill="#FFFFFF"/>
<rect x="50.0000" y="21.8750" width="3.1450" height="3.1450" fill="#FFFFFF"/>
<rect x="53.1250" y="21.8750" width="3.1450" height="3.1450" fill="#FFFFFF"/>
<rect x="56.2500" y="21.8750" width="3.1450" height="3.1450" fill="#FFFFFF"/>
<rect x="59.3750" y="21.8750" width="3.1450" height="3.1450" fill="#FB2C36"/>
<rect x="62.5000" y="21.8750" width="3.1450" height="3.1450" fill="#FB2C36"/>
<rect x="65.6250" y="21.8750" width="3.1450" height="3.1450" fill="#FB2C36"/>
<rect x="68.7500" y="21.8750" width="3.1450" height="3.1450" fill="#FB2C36"/>
<rect x="71.8750" y="21.8750" width="3.1450" height="3.1450" fill="#FB2C36"/>
<rect x="75.0000" y="21.8750" width="3.1450" height="3.1450" fill="#FB2C36"/>
<rect x="78.1250" y="21.8750" width="3.1450" height="3.1450" fill="#FB2C36"/>
<rect x="81.2500" y="21.8750" width="3.1450" height="3.1450" fill="#FB2C36"/>
<rect x="84.3750" y="21.8750" width="3.1450" height="3.1450" fill="#FB2C36"/>
<rect x="87.5000" y="21.8750" width="3.1450" height="3.1450" fill="#FB2C36"/>
<rect x="9.3750" y="25.0000" width="3.1450" height="3.1450" fill="#FB2C36"/>
<rect x="12.5000" y="25.0000" width="3.1450" height="3.1450" fill="#FB2C36"/>
<rect x="15.6250" y="25.0000" width="3.1450" height="3.1450" fill="#FB2C36"/>
<rect x="18.7500" y="25.0000" width="3.1450" height="3.1450" fill="#FB2C36"/>
<rect x="21.8750" y="25.0000" width="3.1450" height="3.1450" fill="#FB2C36"/>
<rect x="25.0000" y="25.0000" width="3.1450" height="3.1450" fill="#FB2C36"/>
<rect x="28.1250" y="25.0000" width="3.1450" height="3.1450" fill="#FB2C36"/>
<rect x="31.2500" y="25.0000" width="3.1450" height="3.1450" fill="#FB2C36"/>
<rect x="34.3750" y="25.0000" width="3.1450" height="3.1450" fill="#FFFFFF"/>
<rect x="37.5000" y="25.0000" width="3.1450" height="3.1450" fill="#FFFFFF"/>
<rect x="40.6250" y="25.0000" width="3.1450" height="3.1450" fill="#FFFFFF"/>
<rect x="43.7500" y="25.0000" width="3.1450" height="3.1450" fill="#FFFFFF"/>
<rect x="46.8750" y="25.0000" width="3.1450" height="3.1450" fill="#FFFFFF"/>
<rect x="50.0000" y="25.0000" width="3.1450" height="3.1450" fill="#FFFFFF"/>
<rect x="53.1250" y="25.0000" width="3.1450" height="3.1450" fill="#FFFFFF"/>
<rect x="56.2500" y="25.0000" width="3.1450" height="3.1450" fill="#FFFFFF"/>
<rect x="59.3750" y="25.0000" width="3.1450" height="3.1450" fill="#FFFFFF"/>
<rect x="62.5000" y="25.0000" width="3.1450" height="3.1450" fill="#FB2C36"/>
<rect x="65.6250" y="25.0000" width="3.1450" height="3.1450" fill="#FB2C36"/>
<rect x="68.7500" y="25.0000" width="3.1450" height="3.1450" fill="#FB2C36"/>
<rect x="71.8750" y="25.0000" width="3.1450" height="3.1450" fill="#FB2C36"/>
<rect x="75.0000" y="25.0000" width="3.1450" height="3.1450" fill="#FB2C36"/>
<rect x="78.1250" y="25.0000" width="3.1450" height="3.1450" fill="#FB2C36"/>
<rect x="81.2500" y="25.0000" width="3.1450" height="3.1450" fill="#FB2C36"/>
<rect x="84.3750" y="25.0000" width="3.1450" height="3.1450" fill="#FB2C36"/>
<rect x="87.5000" y="25.0000" width="3.1450" height="3.1450" fill="#FB2C36"/>
<rect x="9.3750" y="28.1250" width="3.1450" height="3.1450" fill="#FB2C36"/>
<rect x="12.5000" y="28.1250" width="3.1450" height="3.1450" fill="#FB2C36"/>
<rect x="15.6250" y="28.1250" width="3.1450" height="3.1450" fill="#FB2C36"/>
<rect x="18.7500" y="28.1250" width="3.1450" height="3.1450" fill="#FB2C36"/>
<rect x="21.8750" y="28.1250" width="3.1450" height="3.1450" fill="#FB2C36"/>
<rect x="25.0000" y="28.1250" width="3.1450" height="3.1450" fill="#FB2C36"/>
<rect x="28.1250" y="28.1250" width="3.1450" height="3.1450" fill="#FB2C36"/>
<rect x="31.2500" y="28.1250" width="3.1450" height="3.1450" fill="#FB2C36"/>
<rect x="34.3750" y="28.1250" width="3.1450" height="3.1450" fill="#FFFFFF"/>
<rect x="37.5000" y="28.1250" width="3.1450" height="3.1450" fill="#FFFFFF"/>
<rect x="40.6250" y="28.1250" width="3.1450" height="3.1450" fill="#FFFFFF"/>
<rect x="43.7500" y="28.1250" width="3.1450" height="3.1450" fill="#FFFFFF"/>
<rect x="46.8750" y="28.1250" width="3.1450" height="3.1450" fill="#FFFFFF"/>
<rect x="50.0000" y="28.1250" width="3.1450" height="3.1450" fill="#FFFFFF"/>
<rect x="53.1250" y="28.1250" width="3.1450" height="3.1450" fill="#FFFFFF"/>
<rect x="56.2500" y="28.1250" width="3.1450" height="3.1450" fill="#FFFFFF"/>
<rect x="59.3750" y="28.1250" width="3.1450" height="3.1450" fill="#FFFFFF"/>
<rect x="62.5000" y="28.1250" width="3.1450" height="3.1450" fill="#FFFFFF"/>
<rect x="65.6250" y="28.1250" width="3.1450" height="3.1450" fill="#FB2C36"/>
<rect x="68.7500" y="28.1250" width="3.1450" height="3.1450" fill="#FB2C36"/>
<rect x="71.8750" y="28.1250" width="3.1450" height="3.1450" fill="#FB2C36"/>
<rect x="75.0000" y="28.1250" width="3.1450" height="3.1450" fill="#FB2C36"/>
<rect x="78.1250" y="28.1250" width="3.1450" height="3.1450" fill="#FB2C36"/>
<rect x="81.2500" y="28.1250" width="3.1450" height="3.1450" fill="#FB2C36"/>
<rect x="84.3750" y="28.1250" width="3.1450" height="3.1450" fill="#FB2C36"/>
<rect x="87.5000" y="28.1250" width="3.1450" height="3.1450" fill="#FB2C36"/>
<rect x="9.3750" y="31.2500" width="3.1450" height="3.1450" fill="#FB2C36"/>
<rect x="12.5000" y="31.2500" width="3.1450" height="3.1450" fill="#FB2C36"/>
<rect x="15.6250" y="31.2500" width="3.1450" height="3.1450" fill="#FB2C36"/>
<rect x="18.7500" y="31.2500" width="3.1450" height="3.1450" fill="#FB2C36"/>
<rect x="21.8750" y="31.2500" width="3.1450" height="3.1450" fill="#FB2C36"/>
<rect x="25.0000" y="31.2500" width="3.1450" height="3.1450" fill="#FB2C36"/>
<rect x="28.1250" y="31.2500" width="3.1450" height="3.1450" fill="#FB2C36"/>
<rect x="31.2500" y="31.2500" width="3.1450" height="3.1450" fill="#FB2C36"/>
<rect x="34.3750" y="31.2500" width="3.1450" height="3.1450" fill="#FFFFFF"/>
<rect x="37.5000" y="31.2500" width="3.1450" height="3.1450" fill="#FFFFFF"/>
<rect x="40.6250" y="31.2500" width="3.1450" height="3.1450" fill="#FFFFFF"/>
<rect x="43.7500" y="31.2500" width="3.1450" height="3.1450" fill="#FFFFFF"/>
<rect x="46.8750" y="31.2500" width="3.1450" height="3.1450" fill="#FB2C36"/>
<rect x="50.0000" y="31.2500" width="3.1450" height="3.1450" fill="#FB2C36"/>
<rect x="53.1250" y="31.2500" width="3.1450" height="3.1450" fill="#FFFFFF"/>
<rect x="56.2500" y="31.2500" width="3.1450" height="3.1450" fill="#FFFFFF"/>
<rect x="59.3750" y="31.2500" width="3.1450" height="3.1450" fill="#FFFFFF"/>
<rect x="62.5000" y="31.2500" width="3.1450" height="3.1450" fill="#FFFFFF"/>
<rect x="65.6250" y="31.2500" width="3.1450" height="3.1450" fill="#FB2C36"/>
<rect x="68.7500" y="31.2500" width="3.1450" height="3.1450" fill="#FB2C36"/>
<rect x="71.8750" y="31.2500" width="3.1450" height="3.1450" fill="#FB2C36"/>
<rect x="75.0000" y="31.2500" width="3.1450" height="3.1450" fill="#FB2C36"/>
<rect x="78.1250" y="31.2500" width="3.1450" height="3.1450" fill="#FB2C36"/>
<rect x="81.2500" y="31.2500" width="3.1450" height="3.1450" fill="#FB2C36"/>
<rect x="84.3750" y="31.2500" width="3.1450" height="3.1450" fill="#FB2C36"/>
<rect x="87.5000" y="31.2500" width="3.1450" height="3.1450" fill="#FB2C36"/>
<rect x="9.3750" y="34.3750" width="3.1450" height="3.1450" fill="#FB2C36"/>
<rect x="12.5000" y="34.3750" width="3.1450" height="3.1450" fill="#FB2C36"/>
<rect x="15.6250" y="34.3750" width="3.1450" height="3.1450" fill="#FB2C36"/>
<rect x="18.7500" y="34.3750" width="3.1450" height="3.1450" fill="#FB2C36"/>
<rect x="21.8750" y="34.3750" width="3.1450" height="3.1450" fill="#FB2C36"/>
<rect x="25.0000" y="34.3750" width="3.1450" height="3.1450" fill="#FB2C36"/>
<rect x="28.1250" y="34.3750" width="3.1450" height="3.1450" fill="#FB2C36"/>
<rect x="31.2500" y="34.3750" width="3.1450" height="3.1450" fill="#FB2C36"/>
<rect x="34.3750" y="34.3750" width="3.1450" height="3.1450" fill="#FFFFFF"/>
<rect x="37.5000" y="34.3750" width="3.1450" height="3.1450" fill="#FFFFFF"/>
<rect x="40.6250" y="34.3750" width="3.1450" height="3.1450" fill="#FFFFFF"/>
<rect x="43.7500" y="34.3750" width="3.1450" height="3.1450" fill="#FFFFFF"/>
<rect x="46.8750" y="34.3750" width="3.1450" height="3.1450" fill="#FB2C36"/>
<rect x="50.0000" y="34.3750" width="3.1450" height="3.1450" fill="#FB2C36"/>
<rect x="53.1250" y="34.3750" width="3.1450" height="3.1450" fill="#FFFFFF"/>
<rect x="56.2500" y="34.3750" width="3.1450" height="3.1450" fill="#FFFFFF"/>
<rect x="59.3750" y="34.3750" width="3.1450" height="3.1450" fill="#FFFFFF"/>
<rect x="62.5000" y="34.3750" width="3.1450" height="3.1450" fill="#FFFFFF"/>
<rect x="65.6250" y="34.3750" width="3.1450" height="3.1450" fill="#FB2C36"/>
<rect x="68.7500" y="34.3750" width="3.1450" height="3.1450" fill="#FB2C36"/>
<rect x="71.8750" y="34.3750" width="3.1450" height="3.1450" fill="#FB2C36"/>
<rect x="75.0000" y="34.3750" width="3.1450" height="3.1450" fill="#FB2C36"/>
<rect x="78.1250" y="34.3750" width="3.1450" height="3.1450" fill="#FB2C36"/>
<rect x="81.2500" y="34.3750" width="3.1450" height="3.1450" fill="#FB2C36"/>
<rect x="84.3750" y="34.3750" width="3.1450" height="3.1450" fill="#FB2C36"/>
<rect x="87.5000" y="34.3750" width="3.1450" height="3.1450" fill="#FB2C36"/>
<rect x="9.3750" y="37.5000" width="3.1450" height="3.1450" fill="#FB2C36"/>
<rect x="12.5000" y="37.5000" width="3.1450" height="3.1450" fill="#FB2C36"/>
<rect x="15.6250" y="37.5000" width="3.1450" height="3.1450" fill="#FB2C36"/>
<rect x="18.7500" y="37.5000" width="3.1450" height="3.1450" fill="#FB2C36"/>
<rect x="21.8750" y="37.5000" width="3.1450" height="3.1450" fill="#FB2C36"/>
<rect x="25.0000" y="37.5000" width="3.1450" height="3.1450" fill="#FB2C36"/>
<rect x="28.1250" y="37.5000" width="3.1450" height="3.1450" fill="#FB2C36"/>
<rect x="31.2500" y="37.5000" width="3.1450" height="3.1450" fill="#FB2C36"/>
<rect x="34.3750" y="37.5000" width="3.1450" height="3.1450" fill="#FFFFFF"/>
<rect x="37.5000" y="37.5000" width="3.1450" height="3.1450" fill="#FFFFFF"/>
<rect x="40.6250" y="37.5000" width="3.1450" height="3.1450" fill="#FFFFFF"/>
<rect x="43.7500" y="37.5000" width="3.1450" height="3.1450" fill="#FFFFFF"/>
<rect x="46.8750" y="37.5000" width="3.1450" height="3.1450" fill="#FFFFFF"/>
<rect x="50.0000" y="37.5000" width="3.1450" height="3.1450" fill="#FFFFFF"/>
<rect x="53.1250" y="37.5000" width="3.1450" height="3.1450" fill="#FFFFFF"/>
<rect x="56.2500" y="37.5000" width="3.1450" height="3.1450" fill="#FFFFFF"/>
<rect x="59.3750" y="37.5000" width="3.1450" height="3.1450" fill="#FFFFFF"/>
<rect x="62.5000" y="37.5000" width="3.1450" height="3.1450" fill="#FFFFFF"/>
<rect x="65.6250" y="37.5000" width="3.1450" height="3.1450" fill="#FB2C36"/>
<rect x="68.7500" y="37.5000" width="3.1450" height="3.1450" fill="#FB2C36"/>
<rect x="71.8750" y="37.5000" width="3.1450" height="3.1450" fill="#FB2C36"/>
<rect x="75.0000" y="37.5000" width="3.1450" height="3.1450" fill="#FB2C36"/>
<rect x="78.1250" y="37.5000" width="3.1450" height="3.1450" fill="#FB2C36"/>
<rect x="81.2500" y="37.5000" width="3.1450" height="3.1450" fill="#FB2C36"/>
<rect x="84.3750" y="37.5000" width="3.1450" height="3.1450" fill="#FB2C36"/>
<rect x="87.5000" y="37.5000" width="3.1450" height="3.1450" fill="#FB2C36"/>
<rect x="9.3750" y="40.6250" width="3.1450" height="3.1450" fill="#FB2C36"/>
<rect x="12.5000" y="40.6250" width="3.1450" height="3.1450" fill="#FB2C36"/>
<rect x="15.6250" y="40.6250" width="3.1450" height="3.1450" fill="#FB2C36"/>
<rect x="18.7500" y="40.6250" width="3.1450" height="3.1450" fill="#FB2C36"/>
<rect x="21.8750" y="40.6250" width="3.1450" height="3.1450" fill="#FB2C36"/>
<rect x="25.0000" y="40.6250" width="3.1450" height="3.1450" fill="#FB2C36"/>
<rect x="28.1250" y="40.6250" width="3.1450" height="3.1450" fill="#FB2C36"/>
<rect x="31.2500" y="40.6250" width="3.1450" height="3.1450" fill="#FB2C36"/>
<rect x="34.3750" y="40.6250" width="3.1450" height="3.1450" fill="#FFFFFF"/>
<rect x="37.5000" y="40.6250" width="3.1450" height="3.1450" fill="#FFFFFF"/>
<rect x="40.6250" y="40.6250" width="3.1450" height="3.1450" fill="#FFFFFF"/>
<rect x="43.7500" y="40.6250" width="3.1450" height="3.1450" fill="#FFFFFF"/>
<rect x="46.8750" y="40.6250" width="3.1450" height="3.1450" fill="#FFFFFF"/>
<rect x="50.0000" y="40.6250" width="3.1450" height="3.1450" fill="#FFFFFF"/>
<rect x="53.1250" y="40.6250" width="3.1450" height="3.1450" fill="#FFFFFF"/>
<rect x="56.2500" y="40.6250" width="3.1450" height="3.1450" fill="#FFFFFF"/>
<rect x="59.3750" y="40.6250" width="3.1450" height="3.1450" fill="#FFFFFF"/>
<rect x="62.5000" y="40.6250" width="3.1450" height="3.1450" fill="#FB2C36"/>
<rect x="65.6250" y="40.6250" width="3.1450" height="3.1450" fill="#FB2C36"/>
<rect x="68.7500" y="40.6250" width="3.1450" height="3.1450" fill="#FB2C36"/>
<rect x="71.8750" y="40.6250" width="3.1450" height="3.1450" fill="#FB2C36"/>
<rect x="75.0000" y="40.6250" width="3.1450" height="3.1450" fill="#FB2C36"/>
<rect x="78.1250" y="40.6250" width="3.1450" height="3.1450" fill="#FB2C36"/>
<rect x="81.2500" y="40.6250" width="3.1450" height="3.1450" fill="#FB2C36"/>
<rect x="84.3750" y="40.6250" width="3.1450" height="3.1450" fill="#FB2C36"/>
<rect x="87.5000" y="40.6250" width="3.1450" height="3.1450" fill="#FB2C36"/>
<rect x="9.3750" y="43.7500" width="3.1450" height="3.1450" fill="#FB2C36"/>
<rect x="12.5000" y="43.7500" width="3.1450" height="3.1450" fill="#FB2C36"/>
<rect x="15.6250" y="43.7500" width="3.1450" height="3.1450" fill="#FB2C36"/>
<rect x="18.7500" y="43.7500" width="3.1450" height="3.1450" fill="#FB2C36"/>
<rect x="21.8750" y="43.7500" width="3.1450" height="3.1450" fill="#FB2C36"/>
<rect x="25.0000" y="43.7500" width="3.1450" height="3.1450" fill="#FB2C36"/>
<rect x="28.1250" y="43.7500" width="3.1450" height="3.1450" fill="#FB2C36"/>
<rect x="31.2500" y="43.7500" width="3.1450" height="3.1450" fill="#FB2C36"/>
<rect x="34.3750" y="43.7500" width="3.1450" height="3.1450" fill="#FFFFFF"/>
<rect x="37.5000" y="43.7500" width="3.1450" height="3.1450" fill="#FFFFFF"/>
<rect x="40.6250" y="43.7500" width="3.1450" height="3.1450" fill="#FFFFFF"/>
<rect x="43.7500" y="43.7500" width="3.1450" height="3.1450" fill="#FFFFFF"/>
<rect x="46.8750" y="43.7500" width="3.1450" height="3.1450" fill="#FFFFFF"/>
<rect x="50.0000" y="43.7500" width="3.1450" height="3.1450" fill="#FFFFFF"/>
<rect x="53.1250" y="43.7500" width="3.1450" height="3.1450" fill="#FFFFFF"/>
<rect x="56.2500" y="43.7500" width="3.1450" height="3.1450" fill="#FFFFFF"/>
<rect x="59.3750" y="43.7500" width="3.1450" height="3.1450" fill="#FB2C36"/>
<rect x="62.5000" y="43.7500" width="3.1450" height="3.1450" fill="#FB2C36"/>
<rect x="65.6250" y="43.7500" width="3.1450" height="3.1450" fill="#FB2C36"/>
<rect x="68.7500" y="43.7500" width="3.1450" height="3.1450" fill="#FB2C36"/>
<rect x="71.8750" y="43.7500" width="3.1450" height="3.1450" fill="#FB2C36"/>
<rect x="75.0000" y="43.7500" width="3.1450" height="3.1450" fill="#FB2C36"/>
<rect x="78.1250" y="43.7500" width="3.1450" height="3.1450" fill="#FB2C36"/>
<rect x="81.2500" y="43.7500" width="3.1450" height="3.1450" fill="#FB2C36"/>
<rect x="84.3750" y="43.7500" width="3.1450" height="3.1450" fill="#FB2C36"/>
<rect x="87.5000" y="43.7500" width="3.1450" height="3.1450" fill="#FB2C36"/>
<rect x="9.3750" y="46.8750" width="3.1450" height="3.1450" fill="#FB2C36"/>
<rect x="12.5000" y="46.8750" width="3.1450" height="3.1450" fill="#FB2C36"/>
<rect x="15.6250" y="46.8750" width="3.1450" height="3.1450" fill="#FB2C36"/>
<rect x="18.7500" y="46.8750" width="3.1450" height="3.1450" fill="#FB2C36"/>
<rect x="21.8750" y="46.8750" width="3.1450" height="3.1450" fill="#FB2C36"/>
<rect x="25.0000" y="46.8750" width="3.1450" height="3.1450" fill="#FB2C36"/>
<rect x="28.1250" y="46.8750" width="3.1450" height="3.1450" fill="#FB2C36"/>
<rect x="31.2500" y="46.8750" width="3.1450" height="3.1450" fill="#FB2C36"/>
<rect x="34.3750" y="46.8750" width="3.1450" height="3.1450" fill="#FFFFFF"/>
<rect x="37.5000" y="46.8750" width="3.1450" height="3.1450" fill="#FFFFFF"/>
<rect x="40.6250" y="46.8750" width="3.1450" height="3.1450" fill="#FFFFFF"/>
<rect x="43.7500" y="46.8750" width="3.1450" height="3.1450" fill="#FFFFFF"/>
<rect x="46.8750" y="46.8750" width="3.1450" height="3.1450" fill="#FB2C36"/>
<rect x="50.0000" y="46.8750" width="3.1450" height="3.1450" fill="#FB2C36"/>
<rect x="53.1250" y="46.8750" width="3.1450" height="3.1450" fill="#FB2C36"/>
<rect x="56.2500" y="46.8750" width="3.1450" height="3.1450" fill="#FB2C36"/>
<rect x="59.3750" y="46.8750" width="3.1450" height="3.1450" fill="#FB2C36"/>
<rect x="62.5000" y="46.8750" width="3.1450" height="3.1450" fill="#FB2C36"/>
<rect x="65.6250" y="46.8750" width="3.1450" height="3.1450" fill="#FB2C36"/>
<rect x="68.7500" y="46.8750" width="3.1450" height="3.1450" fill="#FB2C36"/>
<rect x="71.8750" y="46.8750" width="3.1450" height="3.1450" fill="#FB2C36"/>
<rect x="75.0000" y="46.8750" width="3.1450" height="3.1450" fill="#FB2C36"/>
<rect x="78.1250" y="46.8750" width="3.1450" height="3.1450" fill="#FB2C36"/>
<rect x="81.2500" y="46.8750" width="3.1450" height="3.1450" fill="#FB2C36"/>
<rect x="84.3750" y="46.8750" width="3.1450" height="3.1450" fill="#FB2C36"/>
<rect x="87.5000" y="46.8750" width="3.1450" height="3.1450" fill="#FB2C36"/>
<rect x="9.3750" y="50.0000" width="3.1450" height="3.1450" fill="#FB2C36"/>
<rect x="12.5000" y="50.0000" width="3.1450" height="3.1450" fill="#FB2C36"/>
<rect x="15.6250" y="50.0000" width="3.1450" height="3.1450" fill="#FB2C36"/>
<rect x="18.7500" y="50.0000" width="3.1450" height="3.1450" fill="#FB2C36"/>
<rect x="21.8750" y="50.0000" width="3.1450" height="3.1450" fill="#FB2C36"/>
<rect x="25.0000" y="50.0000" width="3.1450" height="3.1450" fill="#FB2C36"/>
<rect x="28.1250" y="50.0000" width="3.1450" height="3.1450" fill="#FB2C36"/>
<rect x="31.2500" y="50.0000" width="3.1450" height="3.1450" fill="#FB2C36"/>
<rect x="34.3750" y="50.0000" width="3.1450" height="3.1450" fill="#FFFFFF"/>
<rect x="37.5000" y="50.0000" width="3.1450" height="3.1450" fill="#FFFFFF"/>
<rect x="40.6250" y="50.0000" width="3.1450" height="3.1450" fill="#FFFFFF"/>
<rect x="43.7500" y="50.0000" width="3.1450" height="3.1450" fill="#FFFFFF"/>
<rect x="46.8750" y="50.0000" width="3.1450" height="3.1450" fill="#FB2C36"/>
<rect x="50.0000" y="50.0000" width="3.1450" height="3.1450" fill="#FB2C36"/>
<rect x="53.1250" y="50.0000" width="3.1450" height="3.1450" fill="#FB2C36"/>
<rect x="56.2500" y="50.0000" width="3.1450" height="3.1450" fill="#FB2C36"/>
<rect x="59.3750" y="50.0000" width="3.1450" height="3.1450" fill="#FB2C36"/>
<rect x="62.5000" y="50.0000" width="3.1450" height="3.1450" fill="#FB2C36"/>
<rect x="65.6250" y="50.0000" width="3.1450" height="3.1450" fill="#FB2C36"/>
<rect x="68.7500" y="50.0000" width="3.1450" height="3.1450" fill="#FB2C36"/>
<rect x="71.8750" y="50.0000" width="3.1450" height="3.1450" fill="#FB2C36"/>
<rect x="75.0000" y="50.0000" width="3.1450" height="3.1450" fill="#FB2C36"/>
<rect x="78.1250" y="50.0000" width="3.1450" height="3.1450" fill="#FB2C36"/>
<rect x="81.2500" y="50.0000" width="3.1450" height="3.1450" fill="#FB2C36"/>
<rect x="84.3750" y="50.0000" width="3.1450" height="3.1450" fill="#FB2C36"/>
<rect x="87.5000" y="50.0000" width="3.1450" height="3.1450" fill="#FB2C36"/>
<rect x="9.3750" y="53.1250" width="3.1450" height="3.1450" fill="#FB2C36"/>
<rect x="12.5000" y="53.1250" width="3.1450" height="3.1450" fill="#FB2C36"/>
<rect x="15.6250" y="53.1250" width="3.1450" height="3.1450" fill="#FB2C36"/>
<rect x="18.7500" y="53.1250" width="3.1450" height="3.1450" fill="#FB2C36"/>
<rect x="21.8750" y="53.1250" width="3.1450" height="3.1450" fill="#FB2C36"/>
<rect x="25.0000" y="53.1250" width="3.1450" height="3.1450" fill="#FB2C36"/>
<rect x="28.1250" y="53.1250" width="3.1450" height="3.1450" fill="#FB2C36"/>
<rect x="31.2500" y="53.1250" width="3.1450" height="3.1450" fill="#FB2C36"/>
<rect x="34.3750" y="53.1250" width="3.1450" height="3.1450" fill="#FFFFFF"/>
<rect x="37.5000" y="53.1250" width="3.1450" height="3.1450" fill="#FFFFFF"/>
<rect x="40.6250" y="53.1250" width="3.1450" height="3.1450" fill="#FFFFFF"/>
<rect x="43.7500" y="53.1250" width="3.1450" height="3.1450" fill="#FFFFFF"/>
<rect x="46.8750" y="53.1250" width="3.1450" height="3.1450" fill="#FB2C36"/>
<rect x="50.0000" y="53.1250" width="3.1450" height="3.1450" fill="#FB2C36"/>
<rect x="53.1250" y="53.1250" width="3.1450" height="3.1450" fill="#FB2C36"/>
<rect x="56.2500" y="53.1250" width="3.1450" height="3.1450" fill="#FB2C36"/>
<rect x="59.3750" y="53.1250" width="3.1450" height="3.1450" fill="#FB2C36"/>
<rect x="62.5000" y="53.1250" width="3.1450" height="3.1450" fill="#FB2C36"/>
<rect x="65.6250" y="53.1250" width="3.1450" height="3.1450" fill="#FB2C36"/>
<rect x="68.7500" y="53.1250" width="3.1450" height="3.1450" fill="#FB2C36"/>
<rect x="71.8750" y="53.1250" width="3.1450" height="3.1450" fill="#FB2C36"/>
<rect x="75.0000" y="53.1250" width="3.1450" height="3.1450" fill="#FB2C36"/>
<rect x="78.1250" y="53.1250" width="3.1450" height="3.1450" fill="#FB2C36"/>
<rect x="81.2500" y="53.1250" width="3.1450" height="3.1450" fill="#FB2C36"/>
<rect x="84.3750" y="53.1250" width="3.1450" height="3.1450" fill="#FB2C36"/>
<rect x="87.5000" y="53.1250" width="3.1450" height="3.1450" fill="#FB2C36"/>
<rect x="9.3750" y="56.2500" width="3.1450" height="3.1450" fill="#FB2C36"/>
<rect x="12.5000" y="56.2500" width="3.1450" height="3.1450" fill="#FB2C36"/>
<rect x="15.6250" y="56.2500" width="3.1450" height="3.1450" fill="#FB2C36"/>
<rect x="18.7500" y="56.2500" width="3.1450" height="3.1450" fill="#FB2C36"/>
<rect x="21.8750" y="56.2500" width="3.1450" height="3.1450" fill="#FB2C36"/>
<rect x="25.0000" y="56.2500" width="3.1450" height="3.1450" fill="#FB2C36"/>
<rect x="28.1250" y="56.2500" width="3.1450" height="3.1450" fill="#FB2C36"/>
<rect x="31.2500" y="56.2500" width="3.1450" height="3.1450" fill="#FB2C36"/>
<rect x="34.3750" y="56.2500" width="3.1450" height="3.1450" fill="#FFFFFF"/>
<rect x="37.5000" y="56.2500" width="3.1450" height="3.1450" fill="#FFFFFF"/>
<rect x="40.6250" y="56.2500" width="3.1450" height="3.1450" fill="#FFFFFF"/>
<rect x="43.7500" y="56.2500" width="3.1450" height="3.1450" fill="#FB2C36"/>
<rect x="46.8750" y="56.2500" width="3.1450" height="3.1450" fill="#FB2C36"/>
<rect x="50.0000" y="56.2500" width="3.1450" height="3.1450" fill="#FB2C36"/>
<rect x="53.1250" y="56.2500" width="3.1450" height="3.1450" fill="#FB2C36"/>
<rect x="56.2500" y="56.2500" width="3.1450" height="3.1450" fill="#FB2C36"/>
<rect x="59.3750" y="56.2500" width="3.1450" height="3.1450" fill="#FB2C36"/>
<rect x="62.5000" y="56.2500" width="3.1450" height="3.1450" fill="#FB2C36"/>
<rect x="65.6250" y="56.2500" width="3.1450" height="3.1450" fill="#FB2C36"/>
<rect x="68.7500" y="56.2500" width="3.1450" height="3.1450" fill="#FB2C36"/>
<rect x="71.8750" y="56.2500" width="3.1450" height="3.1450" fill="#FB2C36"/>
<rect x="75.0000" y="56.2500" width="3.1450" height="3.1450" fill="#FB2C36"/>
<rect x="78.1250" y="56.2500" width="3.1450" height="3.1450" fill="#FB2C36"/>
<rect x="81.2500" y="56.2500" width="3.1450" height="3.1450" fill="#FB2C36"/>
<rect x="84.3750" y="56.2500" width="3.1450" height="3.1450" fill="#FB2C36"/>
<rect x="87.5000" y="56.2500" width="3.1450" height="3.1450" fill="#FB2C36"/>
<rect x="9.3750" y="59.3750" width="3.1450" height="3.1450" fill="#FB2C36"/>
<rect x="12.5000" y="59.3750" width="3.1450" height="3.1450" fill="#FB2C36"/>
<rect x="15.6250" y="59.3750" width="3.1450" height="3.1450" fill="#FB2C36"/>
<rect x="18.7500" y="59.3750" width="3.1450" height="3.1450" fill="#FB2C36"/>
<rect x="21.8750" y="59.3750" width="3.1450" height="3.1450" fill="#FB2C36"/>
<rect x="25.0000" y="59.3750" width="3.1450" height="3.1450" fill="#FB2C36"/>
<rect x="28.1250" y="59.3750" width="3.1450" height="3.1450" fill="#FB2C36"/>
<rect x="31.2500" y="59.3750" width="3.1450" height="3.1450" fill="#FB2C36"/>
<rect x="34.3750" y="59.3750" width="3.1450" height="3.1450" fill="#FB2C36"/>
<rect x="37.5000" y="59.3750" width="3.1450" height="3.1450" fill="#FB2C36"/>
<rect x="40.6250" y="59.3750" width="3.1450" height="3.1450" fill="#FB2C36"/>
<rect x="43.7500" y="59.3750" width="3.1450" height="3.1450" fill="#FB2C36"/>
<rect x="46.8750" y="59.3750" width="3.1450" height="3.1450" fill="#FB2C36"/>
<rect x="50.0000" y="59.3750" width="3.1450" height="3.1450" fill="#FB2C36"/>
<rect x="53.1250" y="59.3750" width="3.1450" height="3.1450" fill="#FB2C36"/>
<rect x="56.2500" y="59.3750" width="3.1450" height="3.1450" fill="#FB2C36"/>
<rect x="59.3750" y="59.3750" width="3.1450" height="3.1450" fill="#FB2C36"/>
<rect x="62.5000" y="59.3750" width="3.1450" height="3.1450" fill="#FB2C36"/>
<rect x="65.6250" y="59.3750" width="3.1450" height="3.1450" fill="#FB2C36"/>
<rect x="68.7500" y="59.3750" width="3.1450" height="3.1450" fill="#FB2C36"/>
<rect x="71.8750" y="59.3750" width="3.1450" height="3.1450" fill="#FB2C36"/>
<rect x="75.0000" y="59.3750" width="3.1450" height="3.1450" fill="#FB2C36"/>
<rect x="78.1250" y="59.3750" width="3.1450" height="3.1450" fill="#FB2C36"/>
<rect x="81.2500" y="59.3750" width="3.1450" height="3.1450" fill="#FB2C36"/>
<rect x="84.3750" y="59.3750" width="3.1450" height="3.1450" fill="#FB2C36"/>
<rect x="87.5000" y="59.3750" width="3.1450" height="3.1450" fill="#FB2C36"/>
<rect x="12.5000" y="62.5000" width="3.1450" height="3.1450" fill="#FB2C36"/>
<rect x="15.6250" y="62.5000" width="3.1450" height="3.1450" fill="#FB2C36"/>
<rect x="18.7500" y="62.5000" width="3.1450" height="3.1450" fill="#FB2C36"/>
<rect x="21.8750" y="62.5000" width="3.1450" height="3.1450" fill="#FB2C36"/>
<rect x="25.0000" y="62.5000" width="3.1450" height="3.1450" fill="#FB2C36"/>
<rect x="28.1250" y="62.5000" width="3.1450" height="3.1450" fill="#FB2C36"/>
<rect x="31.2500" y="62.5000" width="3.1450" height="3.1450" fill="#FB2C36"/>
<rect x="34.3750" y="62.5000" width="3.1450" height="3.1450" fill="#FB2C36"/>
<rect x="37.5000" y="62.5000" width="3.1450" height="3.1450" fill="#FB2C36"/>
<rect x="40.6250" y="62.5000" width="3.1450" height="3.1450" fill="#FB2C36"/>
<rect x="43.7500" y="62.5000" width="3.1450" height="3.1450" fill="#FB2C36"/>
<rect x="46.8750" y="62.5000" width="3.1450" height="3.1450" fill="#FB2C36"/>
<rect x="50.0000" y="62.5000" width="3.1450" height="3.1450" fill="#FB2C36"/>
<rect x="53.1250" y="62.5000" width="3.1450" height="3.1450" fill="#FB2C36"/>
<rect x="56.2500" y="62.5000" width="3.1450" height="3.1450" fill="#FB2C36"/>
<rect x="59.3750" y="62.5000" width="3.1450" height="3.1450" fill="#FB2C36"/>
<rect x="62.5000" y="62.5000" width="3.1450" height="3.1450" fill="#FB2C36"/>
<rect x="65.6250" y="62.5000" width="3.1450" height="3.1450" fill="#FB2C36"/>
<rect x="68.7500" y="62.5000" width="3.1450" height="3.1450" fill="#FB2C36"/>
<rect x="71.8750" y="62.5000" width="3.1450" height="3.1450" fill="#FB2C36"/>
<rect x="75.0000" y="62.5000" width="3.1450" height="3.1450" fill="#FB2C36"/>
<rect x="78.1250" y="62.5000" width="3.1450" height="3.1450" fill="#FB2C36"/>
<rect x="81.2500" y="62.5000" width="3.1450" height="3.1450" fill="#FB2C36"/>
<rect x="84.3750" y="62.5000" width="3.1450" height="3.1450" fill="#FB2C36"/>
<rect x="12.5000" y="65.6250" width="3.1450" height="3.1450" fill="#FB2C36"/>
<rect x="15.6250" y="65.6250" width="3.1450" height="3.1450" fill="#FB2C36"/>
<rect x="18.7500" y="65.6250" width="3.1450" height="3.1450" fill="#FB2C36"/>
<rect x="21.8750" y="65.6250" width="3.1450" height="3.1450" fill="#FB2C36"/>
<rect x="25.0000" y="65.6250" width="3.1450" height="3.1450" fill="#FB2C36"/>
<rect x="28.1250" y="65.6250" width="3.1450" height="3.1450" fill="#FB2C36"/>
<rect x="31.2500" y="65.6250" width="3.1450" height="3.1450" fill="#FB2C36"/>
<rect x="34.3750" y="65.6250" width="3.1450" height="3.1450" fill="#FB2C36"/>
<rect x="37.5000" y="65.6250" width="3.1450" height="3.1450" fill="#FB2C36"/>
<rect x="40.6250" y="65.6250" width="3.1450" height="3.1450" fill="#FB2C36"/>
<rect x="43.7500" y="65.6250" width="3.1450" height="3.1450" fill="#FB2C36"/>
<rect x="46.8750" y="65.6250" width="3.1450" height="3.1450" fill="#FB2C36"/>
<rect x="50.0000" y="65.6250" width="3.1450" height="3.1450" fill="#FB2C36"/>
<rect x="53.1250" y="65.6250" width="3.1450" height="3.1450" fill="#FB2C36"/>
<rect x="56.2500" y="65.6250" width="3.1450" height="3.1450" fill="#FB2C36"/>
<rect x="59.3750" y="65.6250" width="3.1450" height="3.1450" fill="#FB2C36"/>
<rect x="62.5000" y="65.6250" width="3.1450" height="3.1450" fill="#FB2C36"/>
<rect x="65.6250" y="65.6250" width="3.1450" height="3.1450" fill="#FB2C36"/>
<rect x="68.7500" y="65.6250" width="3.1450" height="3.1450" fill="#FB2C36"/>
<rect x="71.8750" y="65.6250" width="3.1450" height="3.1450" fill="#FB2C36"/>
<rect x="75.0000" y="65.6250" width="3.1450" height="3.1450" fill="#FB2C36"/>
<rect x="78.1250" y="65.6250" width="3.1450" height="3.1450" fill="#FB2C36"/>
<rect x="81.2500" y="65.6250" width="3.1450" height="3.1450" fill="#FB2C36"/>
<rect x="84.3750" y="65.6250" width="3.1450" height="3.1450" fill="#FB2C36"/>
<rect x="43.7500" y="68.7500" width="3.1450" height="3.1450" fill="#FB2C36"/>
<rect x="46.8750" y="68.7500" width="3.1450" height="3.1450" fill="#FB2C36"/>
<rect x="50.0000" y="68.7500" width="3.1450" height="3.1450" fill="#FB2C36"/>
<rect x="53.1250" y="68.7500" width="3.1450" height="3.1450" fill="#FB2C36"/>
<rect x="56.2500" y="68.7500" width="3.1450" height="3.1450" fill="#FB2C36"/>
<rect x="46.8750" y="71.8750" width="3.1450" height="3.1450" fill="#FB2C36"/>
<rect x="50.0000" y="71.8750" width="3.1450" height="3.1450" fill="#FB2C36"/>
<rect x="53.1250" y="71.8750" width="3.1450" height="3.1450" fill="#FB2C36"/>
<rect x="46.8750" y="75.0000" width="3.1450" height="3.1450" fill="#FB2C36"/>
<rect x="50.0000" y="75.0000" width="3.1450" height="3.1450" fill="#FB2C36"/>
<rect x="53.1250" y="75.0000" width="3.1450" height="3.1450" fill="#FB2C36"/>
<rect x="46.8750" y="78.1250" width="3.1450" height="3.1450" fill="#FB2C36"/>
<rect x="50.0000" y="78.1250" width="3.1450" height="3.1450" fill="#FB2C36"/>
<rect x="50.0000" y="81.2500" width="3.1450" height="3.1450" fill="#FB2C36"/>
</svg>